# xmcd CD database file
#
# Track frame offsets:
#	150
#	14853
#	32663
#	47523
#	65589
#	80033
#	96661
#
# Disc length: 1631 seconds
#
# Revision: 0
# Processed by: cddbd v1.5.2PL0 Copyright (c) Steve Scherf et al.
# Submitted via: CDex 1.51
#
DISCID=60065d07
DTITLE=Colin Raye - Selected Hits
DYEAR=2007
DGENRE=Country
TTITLE0=A Soldiers Prayer
TTITLE1=Quitters
TTITLE2=That's My Story
TTITLE3=Little Rock
TTITLE4=I Think About You
TTITLE5=Love Me
TTITLE6=A Recorded Personal Message From Collin
EXTD=YEAR: 2007
EXTT0=
EXTT1=
EXTT2=
EXTT3=
EXTT4=
EXTT5=
EXTT6=
PLAYORDER=
